<?xml version="1.0" standalone="no"?>
<!DOCTYPE svg PUBLIC "-//W3C//DTD SVG 20010904//EN"
 "http://www.w3.org/TR/2001/REC-SVG-20010904/DTD/svg10.dtd">
<svg version="1.0" xmlns="http://www.w3.org/2000/svg"
 width="700.000000pt" height="700.000000pt" viewBox="0 0 700.000000 700.000000"
 preserveAspectRatio="xMidYMid meet">
<g transform="translate(0.000000,700.000000) scale(0.100000,-0.100000)"
fill="#000000" stroke="none">
<path d="M2859 6285 c-2 -1 -44 -6 -93 -10 -49 -4 -96 -8 -105 -10 -9 -1 -38
-6 -64 -9 -27 -4 -57 -9 -67 -11 -9 -2 -34 -6 -53 -9 -158 -25 -483 -117 -602
-171 -16 -7 -55 -23 -85 -35 -30 -12 -122 -56 -205 -99 -574 -295 -1010 -756
-1210 -1280 -33 -86 -78 -240 -90 -306 -10 -56 -24 -150 -30 -205 -9 -68 -9
-288 -1 -355 3 -27 9 -75 12 -105 8 -67 47 -244 73 -325 43 -137 137 -343 208
-454 34 -53 34 -54 38 -190 6 -218 28 -366 83 -556 94 -321 245 -572 491 -815
141 -139 266 -230 426 -310 161 -80 295 -123 450 -143 22 -3 74 -21 115 -40
101 -47 250 -93 363 -114 100 -18 320 -23 425 -10 104 13 337 77 445 122 24
10 44 8 120 -11 51 -13 108 -26 127 -29 20 -3 47 -8 60 -10 46 -9 145 -24 215
-32 89 -10 466 -10 565 0 623 63 1212 366 1565 806 280 349 401 753 362 1206
-14 152 -80 416 -141 557 -14 33 -14 38 3 60 32 41 186 269 251 373 233 367
296 679 199 977 -64 193 -210 404 -392 563 -38 33 -74 65 -80 71 -24 22 -154
111 -212 146 -212 128 -529 253 -782 308 -119 26 -117 26 -173 35 -25 4 -52 9
-60 10 -16 3 -133 17 -165 20 -11 1 -74 5 -139 9 -113 8 -124 10 -215 53 -235
111 -526 210 -756 259 -47 10 -315 53 -365 59 -59 7 -506 16 -511 10z m376
-149 c79 -7 216 -23 265 -32 14 -2 40 -7 59 -10 18 -3 43 -8 55 -10 11 -2 35
-7 51 -10 109 -19 573 -160 563 -170 -4 -3 -70 -12 -153 -20 -38 -3 -79 -8
-90 -10 -11 -2 -49 -9 -85 -14 -118 -19 -468 -102 -493 -117 -5 -3 -52 -7
-105 -8 -96 -4 -194 -12 -262 -21 -113 -16 -237 -39 -325 -61 -55 -14 -125
-27 -155 -29 -120 -10 -263 -28 -347 -44 -130 -24 -414 -107 -567 -166 -94
-36 -263 -119 -356 -174 -304 -179 -545 -430 -690 -717 -97 -193 -168 -465
-169 -651 -1 -29 -4 -51 -8 -49 -13 8 -1 344 12 367 2 3 6 28 9 55 35 263 190
612 389 875 85 112 289 321 402 412 173 140 401 280 582 358 54 23 112 48 128
55 134 59 477 150 644 170 30 4 63 9 75 11 12 2 71 7 131 10 61 4 111 7 113 9
4 4 242 -3 327 -9z m1370 -411 c255 -140 532 -351 695 -529 l45 -49 -79 62
c-104 82 -169 123 -296 187 -130 65 -327 134 -455 160 -63 13 -205 36 -244 40
-25 3 -68 7 -96 10 -56 5 -338 75 -331 81 6 6 229 42 306 49 141 13 249 19
325 18 67 -1 88 -6 130 -29z m385 -9 c386 -59 787 -209 1050 -394 347 -244
550 -576 539 -882 -8 -222 -95 -422 -332 -764 l-90 -128 -28 46 c-16 25 -29
49 -29 52 0 3 -9 18 -20 34 -12 18 -22 51 -25 91 -7 80 -12 110 -25 179 -6 30
-13 78 -16 105 -32 322 -135 614 -310 881 -176 269 -430 528 -714 728 -58 42
-85 65 -70 63 14 -3 45 -8 70 -11z m-910 -283 c70 -34 61 -35 -70 -2 -103 25
-116 35 -47 34 37 -1 71 -10 117 -32z m530 -57 c307 -97 554 -252 728 -456
l47 -55 -40 25 c-140 84 -288 164 -405 219 -105 49 -147 75 -190 116 -30 30
-84 77 -120 105 -72 58 -75 60 -69 60 2 0 24 -7 49 -14z m-1240 -17 c55 -12
99 -23 97 -25 -2 -2 -20 -6 -41 -10 -21 -3 -47 -7 -56 -9 -63 -12 -124 -16
-275 -19 -93 -2 -159 0 -145 4 128 39 279 79 297 79 12 1 68 -9 123 -20z
m-1520 -63 c0 -2 -24 -19 -52 -37 -108 -68 -315 -231 -373 -294 -11 -12 -60
-55 -110 -95 -49 -41 -98 -83 -110 -94 -52 -54 -55 -45 -7 24 123 178 310 333
543 449 101 51 109 54 109 47z m2115 -130 c50 -21 149 -67 220 -101 114 -56
139 -72 207 -139 123 -122 219 -260 297 -427 38 -81 106 -267 115 -312 3 -12
12 -53 21 -90 35 -148 44 -258 41 -467 -4 -231 -7 -245 -96 -435 -40 -85 -121
-228 -140 -245 -3 -3 -31 -40 -63 -83 -74 -99 -227 -253 -337 -338 -116 -90
-125 -93 -55 -20 33 35 65 68 70 75 6 6 47 58 91 116 200 262 309 498 368 795
54 276 53 440 -4 670 -48 189 -143 382 -265 535 -51 64 -178 192 -242 245 -69
56 -202 139 -298 184 -55 26 -116 55 -135 64 l-35 17 75 -3 c61 -2 92 -10 165
-41z m-542 -31 c71 -8 230 -52 317 -86 242 -97 485 -295 622 -509 65 -101 65
-109 6 -54 -70 64 -151 118 -250 166 -42 21 -105 58 -140 82 -100 70 -251 138
-356 161 -12 3 -32 7 -44 10 -13 3 -34 7 -46 10 -13 2 -46 24 -72 49 -55 51
-141 109 -209 139 l-46 21 45 12 c25 7 63 11 85 8 22 -2 62 -6 88 -9z m-463
-119 c91 -11 197 -41 250 -71 25 -14 25 -14 -15 -16 -42 -2 -48 -2 -130 -12
-145 -18 -436 -97 -540 -146 -11 -6 -58 -26 -105 -46 -370 -158 -697 -417
-875 -693 -44 -69 -107 -196 -118 -238 -4 -18 -5 -18 -6 1 -3 52 67 261 132
389 31 64 58 98 135 174 102 100 262 224 402 312 117 73 415 217 590 284 80
31 154 60 165 65 11 5 31 7 45 5 14 -1 45 -5 70 -8z m-1319 -145 c-42 -44 -99
-97 -128 -118 -54 -40 -97 -77 -172 -147 -79 -74 28 59 145 180 38 39 208 164
224 164 3 0 -28 -36 -69 -79z m3590 -110 c130 -87 198 -141 285 -229 37 -37
44 -51 54 -112 19 -115 15 -118 -61 -47 -37 34 -109 98 -161 142 -55 47 -102
95 -113 117 -10 20 -48 78 -86 128 -37 49 -64 90 -60 90 5 0 69 -40 142 -89z
m-461 -51 c29 -58 24 -61 -10 -7 -16 26 -30 50 -30 53 0 14 23 -12 40 -46z
m-3846 -36 c-28 -63 -69 -213 -78 -289 -4 -27 -17 -66 -29 -85 -79 -122 -184
-383 -204 -503 -4 -25 -9 -34 -14 -26 -4 7 -6 16 -5 19 2 3 7 47 11 99 3 51 8
98 10 105 2 6 6 27 9 46 28 182 98 365 201 530 31 50 114 160 120 160 2 0 -7
-25 -21 -56z m1966 -48 c0 -3 -42 -26 -92 -51 -230 -115 -495 -334 -673 -556
-83 -105 -90 -111 -61 -52 77 154 236 336 387 442 121 86 280 165 437 220 1 1
2 -1 2 -3z m586 -3 c7 -5 16 -24 21 -43 13 -45 17 -190 6 -190 -5 0 -33 9 -63
19 -117 40 -189 50 -335 47 -97 -3 -165 -10 -220 -24 -44 -11 -81 -19 -83 -18
-4 5 205 106 275 132 148 57 367 98 399 77z m-971 -13 c-3 -5 -10 -10 -16 -10
-27 0 -279 -200 -354 -282 -230 -249 -330 -479 -340 -778 -2 -52 -10 -117 -19
-145 -36 -114 -42 -317 -12 -420 62 -214 218 -381 469 -504 158 -77 304 -111
507 -117 58 -1 132 -7 165 -12 122 -19 311 -14 466 13 72 13 214 61 294 100
82 40 213 118 225 134 3 4 15 14 28 23 31 21 137 123 191 184 129 145 259 395
312 601 61 241 63 507 4 711 -9 30 -14 56 -12 58 5 6 62 -119 87 -191 59 -171
58 -398 -1 -585 -133 -419 -537 -859 -989 -1078 -222 -108 -386 -147 -615
-146 -141 0 -173 3 -266 27 -208 53 -369 137 -554 287 -106 87 -155 138 -275
287 -87 107 -205 360 -225 482 -3 19 -8 37 -10 41 -7 11 -18 145 -17 210 1 59
4 84 18 175 9 55 55 179 90 243 53 98 109 168 213 272 155 155 300 257 539
382 97 50 107 54 97 38z m1350 -11 c75 -18 104 -36 170 -103 186 -190 282
-441 283 -741 2 -573 -372 -1109 -868 -1244 -77 -21 -170 -41 -170 -36 0 2 33
21 73 43 328 181 572 487 648 812 11 47 31 108 44 135 116 248 123 560 18 798
-44 101 -111 197 -193 279 -43 42 -72 75 -66 73 6 -2 34 -9 61 -16z m1221 -80
c59 -45 87 -101 123 -245 32 -131 40 -197 42 -344 2 -268 -61 -525 -193 -785
-51 -101 -126 -235 -132 -235 -2 0 5 26 16 58 20 59 53 185 63 237 3 17 12 71
21 120 8 50 24 122 34 160 11 39 22 86 25 105 3 19 12 73 19 119 19 116 19
375 0 502 -15 100 -54 270 -74 323 -5 14 -7 26 -3 26 3 0 30 -18 59 -41z
m-1249 -165 c61 -87 126 -254 138 -352 3 -26 8 -62 11 -81 6 -45 1 -39 -45 55
-46 96 -139 215 -218 279 -32 26 -57 52 -56 56 2 4 5 50 7 101 3 51 5 98 6
103 0 12 127 -117 157 -161z m-1052 -166 c-131 -65 -214 -125 -310 -223 -125
-129 -217 -305 -232 -446 -3 -32 -9 -56 -13 -54 -17 10 -32 150 -26 229 6 71
11 88 42 132 77 113 216 236 376 334 92 56 145 74 217 76 43 1 43 1 -54 -48z
m703 0 c2 -9 -1 -30 -5 -46 l-8 -30 -47 47 -48 48 53 -1 c39 -1 53 -5 55 -18z
m2336 -118 c7 -23 4 -22 -23 10 -23 26 -30 45 -30 75 l0 40 23 -50 c13 -27 26
-61 30 -75z m-2591 54 c81 -56 92 -69 46 -58 -19 5 -74 8 -124 8 -152 -1 -293
-63 -413 -182 -204 -202 -193 -526 21 -632 201 -99 439 -10 593 222 25 38 48
67 51 65 8 -8 -18 -89 -44 -142 -80 -157 -227 -304 -397 -396 -81 -43 -89 -44
-198 -20 -46 11 -130 40 -178 64 -135 64 -212 201 -211 372 0 44 2 89 5 101
48 224 199 413 430 539 104 56 280 117 321 110 17 -3 60 -26 98 -51z m494
-107 c96 -124 136 -255 137 -443 l0 -131 -34 -58 c-43 -73 -165 -198 -245
-252 -99 -67 -267 -144 -282 -129 -4 4 7 19 24 35 17 15 52 56 77 91 178 242
250 544 183 770 -13 44 -5 85 39 209 6 18 39 -12 101 -92z m-2557 -42 c-19
-83 -50 -160 -35 -90 13 63 48 186 51 182 3 -2 -5 -44 -16 -92z m-325 -42 c-4
-21 -9 -45 -10 -53 -12 -91 -21 -131 -41 -174 -13 -28 -24 -44 -24 -36 1 38
69 300 78 300 2 0 1 -17 -3 -37z m2421 -22 c23 -10 57 -35 77 -55 36 -35 36
-36 21 -71 -17 -41 -96 -176 -125 -214 -42 -54 -125 -134 -165 -157 -179 -105
-356 3 -320 195 26 134 169 276 312 310 67 16 156 12 200 -8z m2539 -108 c63
-86 61 -69 26 -258 l-7 -40 -23 74 c-13 40 -35 101 -48 135 -25 59 -27 79 -19
121 3 11 5 26 5 33 1 6 3 12 5 12 3 0 30 -35 61 -77z m-322 -203 c1 -33 -14
-83 -57 -190 -53 -134 -202 -445 -263 -550 -188 -323 -417 -573 -680 -743 -24
-15 -43 -24 -43 -20 0 9 92 106 161 169 444 412 761 973 815 1444 4 30 8 62
10 70 1 8 3 20 4 25 4 23 52 -164 53 -205z m-4639 -367 c19 -140 89 -342 185
-531 38 -75 72 -152 75 -170 l6 -34 -39 31 c-21 17 -75 69 -119 116 -87 92
-99 117 -143 300 -23 95 -25 145 -9 204 5 20 12 54 16 76 11 69 19 71 28 8z
m1326 0 c34 -49 125 -144 171 -179 14 -10 48 -39 75 -63 38 -34 44 -42 24 -36
-86 25 -206 126 -262 222 -29 49 -52 103 -44 103 2 0 18 -21 36 -47z m3373
-135 c-2 -131 -4 -153 -18 -253 -10 -72 -15 -81 -101 -195 -123 -162 -421
-454 -610 -599 -202 -154 -428 -295 -494 -310 -72 -15 -160 -26 -280 -36 l-75
-5 37 25 c21 14 83 41 138 61 452 157 815 452 1103 894 65 100 213 373 258
477 18 40 35 73 39 73 3 0 5 -60 3 -132z m622 -26 c14 -56 28 -115 31 -130 2
-15 6 -36 9 -47 19 -88 25 -312 12 -452 -21 -225 -118 -490 -250 -688 -299
-447 -860 -762 -1483 -830 -27 -3 -67 -8 -89 -10 -49 -5 -367 -6 -415 -1 -100
11 -167 18 -181 21 -9 2 -40 6 -70 10 -30 4 -58 9 -62 12 -10 6 212 127 373
204 364 174 481 245 770 468 69 53 147 112 173 131 72 52 270 210 325 259 203
180 351 359 440 529 51 99 97 217 108 275 3 17 20 50 37 72 18 23 77 98 132
168 55 69 103 123 107 119 3 -4 18 -53 33 -110z m-2484 -59 c-44 -80 -200
-237 -310 -311 -162 -109 -341 -177 -501 -189 -55 -4 -78 0 -153 27 -169 60
-318 153 -449 281 -48 47 -88 88 -88 91 0 4 26 -11 58 -32 54 -36 144 -78 187
-86 11 -2 42 -9 69 -15 62 -15 251 -6 328 15 86 23 114 27 218 31 233 8 405
55 567 155 43 26 79 48 81 49 1 1 -2 -7 -7 -16z m-1601 -227 c0 -5 -10 4 -22
20 -33 44 -36 53 -6 19 15 -16 28 -34 28 -39z m2529 -163 c-83 -153 -203 -321
-288 -401 -121 -117 -394 -278 -604 -356 -94 -35 -258 -79 -342 -90 -73 -11
-311 -16 -290 -7 11 5 63 26 115 46 83 33 307 143 335 165 6 5 48 22 95 38
345 120 662 320 910 573 58 59 107 108 108 108 2 1 -15 -34 -39 -76z m-2764
-128 c230 -231 556 -407 833 -451 20 -3 39 -8 41 -10 20 -19 -205 23 -301 56
-272 94 -532 292 -702 535 -20 29 -15 25 20 -15 27 -30 76 -82 109 -115z m20
-264 c181 -151 422 -264 679 -317 46 -9 182 -25 217 -26 59 -1 47 -18 -13 -20
-340 -10 -548 59 -803 267 -94 76 -157 139 -240 240 -42 51 -35 46 41 -30 50
-49 103 -101 119 -114z m-721 41 c39 -30 62 -56 73 -85 10 -23 41 -91 71 -152
29 -60 49 -105 44 -100 -54 57 -203 266 -272 380 l-25 40 26 -20 c15 -11 52
-39 83 -63z m-269 -97 c176 -327 390 -620 625 -856 114 -115 128 -132 90 -111
-80 44 -230 162 -315 247 -188 189 -317 402 -411 678 -49 143 -47 150 11 42z
m2611 -44 c-6 -10 -66 -33 -66 -26 0 3 15 11 33 19 40 18 39 18 33 7z m-1885
-130 c68 -32 145 -66 171 -76 36 -13 65 -38 125 -104 157 -173 348 -349 506
-464 37 -28 66 -51 64 -53 -1 -2 -32 3 -67 11 -220 50 -433 131 -507 193 -107
89 -228 231 -315 367 -50 78 -111 185 -105 185 2 0 60 -26 128 -59z m1239
-117 c0 -8 -19 -13 -24 -6 -3 5 1 9 9 9 8 0 15 -2 15 -3z m-100 -248 c30 -3
89 -8 130 -11 79 -6 181 -15 215 -20 11 -1 32 -3 48 -4 15 0 27 -5 27 -10 0
-14 -243 -4 -335 13 -130 24 -145 28 -152 39 -3 5 -2 8 3 5 5 -4 34 -9 64 -12z
m-220 -112 c78 -26 210 -60 270 -69 128 -19 178 -23 281 -23 185 1 392 38 549
99 46 17 79 21 212 22 87 1 158 1 158 1 0 -5 -177 -85 -306 -139 -131 -55
-217 -80 -369 -110 -16 -3 -52 -8 -80 -11 -27 -3 -53 -8 -56 -10 -10 -6 -230
-18 -297 -17 -63 2 -64 3 -220 107 -155 103 -276 196 -237 182 11 -4 54 -19
95 -32z m-739 -159 c25 -13 91 -54 145 -91 115 -78 290 -165 411 -204 102 -33
90 -38 -89 -39 l-117 0 -81 50 c-146 88 -266 185 -415 334 -105 105 -104 109
2 38 54 -36 119 -75 144 -88z m2455 97 c-10 -17 -275 -162 -350 -192 -116 -46
-253 -88 -374 -116 -203 -46 -167 -26 138 75 196 66 259 88 325 116 73 31 241
109 250 117 12 10 18 10 11 0z m-1087 -514 c27 -8 31 -12 19 -19 -24 -14 -140
-40 -253 -58 -57 -9 -278 -7 -320 3 -11 2 -33 5 -50 6 -48 1 -11 16 90 34 50
9 120 24 157 34 76 19 296 19 357 0z"/>
</g>
</svg>
