<svg width="1024" height="1024" viewBox="0 0 1024 1024" fill="none" xmlns="http://www.w3.org/2000/svg">
<rect width="1024" height="1024" fill="#F1F3F4"/>
<path d="M777.225 506.857C779.138 504.211 781.127 501.594 782.995 498.918C805.75 466.566 828.923 431.807 815.976 392.577C795.599 330.803 720.309 297.673 651.388 288.793C686.387 311.816 716.048 340.984 736.485 374.772C752.871 401.906 761.422 430.73 763.216 459.779C765.758 469.646 767.133 479.752 767.477 489.918C770.946 495.48 774.205 501.131 777.225 506.857ZM773.532 541.855C765.07 553.203 756.22 564.445 747.055 575.508C740.043 611.075 714.822 640.392 685.505 664.746C673.709 674.554 661.33 683.898 648.578 692.898C627.603 710.464 604.579 726.147 579.239 738.451C574.021 740.978 568.639 743.34 563.167 745.552C551.327 752.086 538.903 758.948 526.001 765.302C596.985 779.43 673.261 765.541 726.842 720.002C782.218 672.939 794.941 604.751 773.532 541.855ZM479.894 768.053C477.278 767.096 474.662 766.094 472.075 765.063C463.748 765.362 455.436 765.242 447.183 764.674C435.402 767.903 423.442 770.579 411.407 772.224C422.052 774.571 433.04 775.618 444.402 774.93C456.363 774.212 468.233 771.685 479.894 768.053ZM323.47 742.443C324.427 742.981 325.383 743.43 326.34 743.923C289.443 712.139 261.172 669.247 243.172 632.738C246.028 644.594 249.974 656.27 255.192 667.557C268.931 697.353 292.373 725.16 323.47 742.443ZM204.84 486.061C205.139 452.289 213.361 419.323 233.544 390.335C261.172 350.642 306.681 323.717 356.913 310.575C362.61 308.751 368.38 307.122 374.211 305.761C390.058 302.039 406.234 300.035 422.5 299.348C447.721 292.201 474.079 288.269 500.511 288.075H500.81C528.183 279.553 556.738 273.977 585.503 271.779C532.758 250.61 473.6 242.118 418.509 250.655C288.77 270.718 193.732 373.934 204.84 486.061ZM698.512 349.401C676.595 324.374 648.563 303.01 617.108 286.401C592.514 285.997 568.235 288.389 544.584 293.173C546.767 293.711 548.949 294.279 551.102 294.907C559.205 296.358 567.174 298.376 574.978 301.007C619.32 303.638 661.734 317.019 695.178 346.306C696.359 347.323 697.405 348.37 698.512 349.401ZM557.232 731.26C559.743 729.84 562.225 728.434 564.677 727.044C575.636 720.87 586.474 714.456 597.164 707.848C573.244 721.438 547.081 732.591 519.886 740.111C512.83 742.817 505.743 745.448 498.642 747.944C497.506 748.348 496.354 748.737 495.218 749.141C516.268 746.031 537.094 739.841 557.232 731.26ZM700.38 375.863C693.563 366.444 684.862 357.579 673.904 349.461C656.546 336.619 637.141 327.888 616.614 322.461C626.287 329.353 635.167 337.067 643.36 345.364C648.204 347.398 653.018 349.491 657.742 351.688C672.648 358.581 687.105 366.594 700.38 375.863ZM717.155 412.162C703.669 397.69 686.955 385.67 668.88 375.639C669.359 376.296 669.837 376.954 670.3 377.627C677.073 385.296 682.933 393.743 687.822 402.923C692.98 407.094 698.048 411.31 702.967 415.601C708.887 420.744 714.643 426.081 720.219 431.597C719.726 425.019 718.724 418.531 717.155 412.162ZM744.2 457.745C742.525 452.378 740.462 447.086 737.935 441.928C737.935 444.664 737.861 447.385 737.711 450.136C739.924 452.632 742.092 455.174 744.2 457.745ZM514.952 725.788C530.471 719.704 545.855 713.051 560.865 705.74C550.295 706.278 539.68 706.308 529.08 705.964C504.143 716.145 476.829 720.69 448.334 717.087C431.904 715.009 415.967 710.629 400.807 704.559C414.263 715.757 428.735 725.893 444.238 734.714C467.605 735.102 491.466 732.082 514.952 725.788ZM353.849 713.604C371.311 722.215 390.013 728.15 409.434 731.484C395.306 721.707 382.075 710.883 369.95 699.132C361.055 690.521 352.533 681.341 344.355 671.773C343.847 671.369 343.339 670.981 342.845 670.577C341.515 670.054 340.154 669.605 338.824 669.067C328.03 664.761 317.699 659.917 307.832 654.595C319.149 677.14 334.369 697.652 353.849 713.604ZM295.902 669.261C290.25 659.304 285.317 648.884 281.146 638.165C275.599 634.293 270.247 630.241 265.134 626.01C273.745 641.499 284.076 656.09 295.902 669.261ZM350.619 330.384C318.716 343.032 291.82 363.26 276.481 390.26C283.792 383.024 291.701 376.147 300.177 369.659C315.008 354.783 332.021 341.582 350.619 330.384ZM743.078 511.222C744.633 503.882 745.844 496.422 746.562 488.752C742.929 483.43 739.072 478.227 735.035 473.114C734.482 476.284 733.869 479.453 733.166 482.623C736.994 492.041 740.402 501.579 743.078 511.222ZM557.262 691.537C570.687 690.7 583.873 689.13 596.656 686.663C616.031 675.376 634.36 662.923 651.164 649.333C666.025 636.416 680.033 622.736 693.309 608.743C700.096 600.834 706.331 592.627 711.997 584.12C715.151 569.065 716.018 553.173 714.957 536.907C708.498 551.708 701.158 565.97 693.623 579.291C673.096 615.695 644.646 649.004 604.49 670.024C592.126 676.497 579.029 681.82 565.484 686.11C562.778 687.979 560.057 689.803 557.262 691.537ZM421.813 695.873C426.985 697.443 432.218 698.833 437.525 699.954C452.864 703.228 467.74 703.841 482.017 702.331C478.863 701.958 475.708 701.584 472.554 701.195C469.085 700.762 465.632 700.253 462.163 699.775C448.469 699.371 434.969 698.07 421.813 695.873ZM315.711 378.33C305.844 387.778 296.993 397.825 289.443 408.32C298.368 398.438 308.804 389.378 320.345 381.245C325.264 375.549 330.511 370.107 336.058 364.949C329.046 369.18 322.259 373.635 315.711 378.33ZM578.043 322.67C573.288 319.949 568.43 317.497 563.436 315.359C559.131 315.27 554.795 315.27 550.474 315.404C559.699 317.662 568.893 320.069 578.043 322.67ZM603.144 653.384C610.171 649.303 616.898 644.803 623.237 639.854C652.585 616.906 672.498 586.228 688.091 554.862C696.329 538.297 704.103 520.521 709.979 502.357C708.259 494.523 706.181 486.689 703.729 478.915C700.051 539.688 661.48 599.563 612.578 642.575C609.543 646.268 606.403 649.871 603.144 653.384ZM637.051 387.061C636.049 386.403 635.033 385.73 634.016 385.072C637.5 390.335 640.654 395.792 643.584 401.383C641.656 396.539 639.428 391.77 637.051 387.061ZM279.8 454.77C276.96 462.694 275.001 470.872 273.835 479.199C274.777 476.358 275.823 473.548 276.9 470.752C278.036 464.742 279.456 458.762 281.176 452.872C280.712 453.499 280.249 454.127 279.8 454.77ZM622.908 396.793C614.82 383.084 604.385 371.109 592.26 360.987C577.669 353.467 562.479 346.59 546.826 340.655C542.371 340.655 537.916 340.79 533.431 341.074C593.187 361.75 634.241 414.808 636.199 474.026C636.603 486.854 635.123 499.696 632.088 512.329C626.152 550.885 602.396 588.096 572.242 618.281C593.651 603.42 612.054 585.316 625.719 565.282C635.182 551.409 642.329 536.488 647.367 521.06C652.734 478.511 645.259 434.662 622.908 396.793ZM488.476 332.208C495.667 330.803 502.813 329.622 509.869 328.65C502.634 326.707 495.323 324.972 487.967 323.492C475.902 326.198 464.077 329.487 452.64 333.21C461.819 332.268 470.849 331.804 479.61 331.879C482.585 331.909 485.545 332.029 488.476 332.208ZM604.639 419.009C593.77 397.87 576.742 379.137 553.36 365.368C534.896 354.499 514.25 348.713 492.751 346.815C489.163 347.577 485.59 348.414 482.032 349.296C491.361 352.855 500.242 358.087 508.36 365.443C509.974 366.908 511.424 368.433 512.815 369.988C528.453 372.35 543.522 377.522 557.262 386.463C560.491 388.556 563.496 390.813 566.426 393.16C580.749 398.752 593.785 407.243 604.639 419.009ZM507.522 649.706C509.077 648.765 510.632 647.778 512.172 646.806C507.403 648.824 502.574 650.663 497.655 652.293C496.638 652.637 495.622 652.906 494.605 653.22C498.941 652.173 503.247 651.007 507.522 649.706ZM447.975 672.999C408.417 672.745 370.1 660.456 340.379 631.572C333.367 624.769 327.028 617.504 321.302 609.909C331.364 624.994 343.922 638.927 359.231 651.067C387.113 673.163 417.896 678.276 447.975 672.999ZM485.874 368.507C475.29 362.722 462.373 359.702 448.678 359.283C431.695 365.174 415.489 371.946 400.688 378.898C369.158 393.669 341.56 412.88 321.153 436.053C311.674 452.767 305.395 470.902 302.928 489.066C316.712 437.892 371.041 398.931 428.077 379.72C446.6 373.486 466.334 369.225 485.874 368.507ZM556.499 404.597C554.287 403.76 552.029 402.983 549.697 402.31C546.348 401.323 542.999 400.576 539.635 399.933C578.656 430.222 583.559 480.739 562.853 520.506C561.851 526.636 560.371 532.736 558.338 538.641C547.155 571.068 520.155 599.22 487.085 614.304C506.192 612.211 525.074 605.244 541.908 592.387C598.868 548.882 614.506 451.945 556.499 404.597ZM359.545 569.229C363.492 577.198 369.232 584.434 376.678 590.638C370.115 584.09 364.389 576.899 359.545 569.229ZM454.404 398.273C429.318 404.777 405.861 419.204 389.834 435.455C379.279 446.144 371.041 458.313 365.465 471.305C380.146 451.227 398.505 433.212 416.191 419.966C427.882 411.22 440.829 403.94 454.404 398.273ZM373.508 531.301C378.083 548.762 391.449 562.068 408.686 567.271C408.238 566.942 407.774 566.673 407.311 566.329C404.306 564.057 401.719 561.575 399.327 559.018C388.518 551.483 379.608 542.08 373.508 531.301ZM508.599 450.808C509.346 447.609 510.004 444.44 510.572 441.285C510.153 441.33 509.72 441.345 509.257 441.3C505.728 441.031 502.215 440.971 498.687 441.001C502.305 443.872 505.639 447.131 508.599 450.808ZM442.085 487.496C437.869 494 433.773 504.898 436.733 512.329C443.221 528.58 461.61 526.741 473.78 516.41C484.05 507.709 492.423 494.747 498.791 480.305C486.786 459.211 454.03 469.167 442.085 487.496ZM474.318 443.558C445.628 449.433 419.959 465.206 406.653 489.545C396.322 508.442 394.513 532.975 410.391 549.914C411.138 550.706 411.93 551.454 412.708 552.186C423.517 558.899 436.195 563.085 449.426 564.744C450.143 564.46 450.846 564.191 451.549 563.877C475.08 553.442 499.599 528.968 502.828 503.777C491.241 524.543 473.869 542.962 448.05 539.06C416.849 534.335 415.339 500.189 428.346 480.41C440.919 461.288 470.221 447.774 493.095 456.4C487.878 450.898 481.479 446.607 474.318 443.558ZM384.422 517.158C385.244 500.548 392.301 483.714 403.633 470.244C415.743 455.847 431.874 445.023 449.979 438.175C445.553 437.981 441.068 438.19 436.583 438.788C415.249 448.132 394.902 464.204 382.867 483.101C380.146 494.134 380.655 505.96 384.422 517.158ZM545.077 482.802C541.429 469.436 533.894 457.88 523.833 448.999C522.203 455.353 520.275 461.513 518.271 467.388C518.301 467.448 518.331 467.493 518.346 467.553C529.738 496.601 515.371 538.492 489.119 562.263C491.974 561.515 494.815 560.678 497.58 559.691C518.87 552.037 535.659 537.266 546.393 519.535C548.606 507.35 548.366 494.897 545.077 482.802ZM506.745 398.333C483.512 400.426 460.848 408.978 440.351 421.461C464.481 413.388 490.18 413.328 512.77 423.36C513.024 419.114 513.069 415.033 512.889 411.25C512.68 407.154 511.977 403.356 511.021 399.753C509.63 399.215 508.18 398.782 506.745 398.333ZM505.354 586.153C515.356 578.08 524.027 568.437 530.904 557.837C523.056 563.593 514.265 568.437 504.577 572.04C489.702 577.587 474.138 579.65 458.994 578.872C455.75 579.665 452.446 580.188 449.082 580.382C435.118 584.942 420.108 586.303 405.248 582.58C394.289 579.829 384.975 574.626 377.455 567.854C393.287 588.605 417.013 603.929 443.251 610.851C465.916 609.281 487.803 600.296 505.354 586.153ZM528.512 409.411C528.961 416.722 528.482 424.197 527.391 431.627C529.066 432.794 530.725 433.989 532.34 435.305C545.84 446.219 554.69 459.823 559.594 474.549C559.773 450.808 549.084 425.034 528.512 409.411ZM325.383 587.917C348.945 627.132 389.057 657.705 441.113 659.036C442.07 659.05 443.027 659.05 443.984 659.05C395.306 655.447 351.8 626.13 325.383 587.917ZM615.986 483.953C614.671 469.272 609.632 454.576 601.395 441.584C606.553 455.398 609.094 470.064 608.975 484.716C608.362 560.05 548.949 638.015 455.316 627.715C451.025 627.251 446.839 626.549 442.728 625.711C420.886 627.177 398.341 622.662 377.186 610.148C335.4 585.435 329.824 549.958 341.829 515.02C340.962 500.264 343.1 485.209 348.721 470.647C359.515 442.705 386.246 414.614 418.509 397.302C383.63 411.744 352.548 434.632 335.116 458.179C289.234 520.133 336.058 606.022 406.698 636.236C486.203 670.233 572.033 603.869 603.428 542.857C608.018 533.902 611.591 524.603 614.147 515.11C616.181 504.899 616.943 494.478 615.986 483.953ZM593.98 639.062C606.179 625.054 616.465 609.804 624.448 594.465C625.226 592.955 625.898 591.416 626.646 589.891C611.995 607.338 594.099 622.946 573.303 635.952C555.797 646.911 536.406 655.896 516.208 662.28C500.72 671.698 483.736 679.936 465.946 685.243C474.378 685.408 482.824 685.228 491.241 684.705C494.56 684.331 497.879 683.898 501.213 683.345C535.793 677.559 567.204 661.069 593.98 639.062ZM662.721 404.747C666.279 415.107 668.985 425.782 670.689 436.621C675.264 465.49 672.977 494.209 664.545 521.239C662.497 538.596 658.415 555.834 652.39 572.518C659.985 560.558 666.488 548.419 671.751 536.488C688.54 498.5 691.754 452.513 675.01 414.42C674.875 414.225 674.786 414.031 674.666 413.837C670.734 410.742 666.757 407.707 662.721 404.747ZM248.165 587.947C255.536 596.618 263.714 604.661 272.549 612.152C271.592 608.638 270.74 605.11 269.948 601.567C267.466 597.545 265.119 593.419 262.951 589.158C253.577 570.829 247.493 551.543 244.473 532.003C242.484 539.852 240.9 547.776 239.778 555.759C241.722 566.598 244.548 577.377 248.165 587.947ZM241.079 480.903C239.823 486.211 238.866 491.608 238.149 497.02C239.748 493.028 241.453 489.081 243.247 485.179C243.964 478.287 245.086 471.425 246.596 464.637C246.551 464.174 246.491 463.696 246.446 463.232C244.308 468.943 242.499 474.833 241.079 480.903ZM221.943 490.636C225.875 468.151 234.187 447.131 246.237 427.83C247.822 413.777 251.544 400.052 257.928 387.076C245.235 401.682 235.458 418.366 229.657 436.979C224.275 454.262 221.913 472.307 221.943 490.636ZM404.336 757.348C382.987 751.338 362.909 741.74 345.342 728.001C334.085 722.365 323.545 715.757 313.722 708.356C330.975 727.672 351.143 745.418 373.658 757.752C383.764 758.664 393.99 758.454 404.336 757.348ZM814.256 482.682C805.316 496.751 795.838 510.893 785.851 524.947C801.758 562.248 807.26 602.434 796.78 642.979C777.524 717.386 702.429 772.314 618.304 783.795C578.955 789.162 539.934 785.769 503.261 775.573C479.879 785.081 455.286 791.465 430.095 789.94C408.432 788.624 388.189 782.495 369.442 773.091C365.63 772.657 361.832 772.134 358.035 771.401C318.955 763.717 286.289 739.946 263.415 711.72C232.034 672.999 219.087 625.592 220.762 578.349C220.522 577.631 220.298 576.899 220.059 576.181C204.107 551.857 193.433 524.498 189.112 494.852C165.476 332.238 344.355 208.121 519.378 237.259C554.675 243.12 589.076 254.676 620.531 270.808C662.242 271.735 703.61 280.181 741.673 297.643C778.75 314.657 811.909 341.806 828.1 376.297C845.413 413.179 835.68 448.955 814.256 482.682Z" fill="#282828"/>
</svg>
